<svg width="13" height="10" viewBox="0 0 13 10" fill="none" xmlns="http://www.w3.org/2000/svg">
<path d="M0.625 8.54425C0.266281 8.75135 0.143374 9.21005 0.350481 9.56877C0.557588 9.92749 1.01628 10.0504 1.375 9.84329L0.625 8.54425ZM12.9395 2.91286C13.0467 2.51276 12.8093 2.10151 12.4092 1.99431L5.88917 0.247277C5.48907 0.140071 5.07782 0.377508 4.97061 0.777607C4.86341 1.17771 5.10084 1.58896 5.50094 1.69617L11.2965 3.24908L9.74358 9.04464C9.63638 9.44473 9.87381 9.85599 10.2739 9.96319C10.674 10.0704 11.0853 9.83296 11.1925 9.43286L12.9395 2.91286ZM1.375 9.84329L12.5901 3.36827L11.8401 2.06923L0.625 8.54425L1.375 9.84329Z" fill="#353C41"/>
</svg>
