<svg width="15" height="14" viewBox="0 0 15 14" fill="none" xmlns="http://www.w3.org/2000/svg">
<path d="M14.6086 7C14.6086 10.7555 11.5641 13.8 7.80859 13.8C4.05306 13.8 1.00859 10.7555 1.00859 7C1.00859 3.24446 4.05306 0.2 7.80859 0.2C11.5641 0.2 14.6086 3.24446 14.6086 7ZM13.6086 7C13.6086 10.2033 11.0118 12.8 7.80859 12.8C4.60534 12.8 2.00859 10.2033 2.00859 7C2.00859 3.79675 4.60534 1.2 7.80859 1.2C11.0118 1.2 13.6086 3.79675 13.6086 7ZM7.80859 13.2C11.2328 13.2 14.0086 10.4242 14.0086 7C14.0086 3.57583 11.2328 0.8 7.80859 0.8C4.38443 0.8 1.60859 3.57583 1.60859 7C1.60859 10.4242 4.38443 13.2 7.80859 13.2Z" stroke="black" stroke-width="0.4" stroke-linecap="round"/>
</svg>
