<svg width="18" height="18" viewBox="0 0 18 18" fill="none" xmlns="http://www.w3.org/2000/svg">
<path d="M8.22869 1.61347C8.53859 0.96522 9.46141 0.96522 9.77131 1.61347C10.0175 2.12847 10.6896 2.26215 11.1141 1.88057C11.6485 1.40026 12.5011 1.75341 12.5393 2.47091C12.5697 3.04091 13.1394 3.42161 13.6777 3.23154C14.3552 2.99228 15.0077 3.64482 14.7685 4.32233C14.5784 4.86057 14.9591 5.43034 15.5291 5.4607C16.2466 5.49893 16.5997 6.35151 16.1194 6.88589C15.7378 7.31042 15.8715 7.98251 16.3865 8.22869C17.0348 8.53859 17.0348 9.46141 16.3865 9.77131C15.8715 10.0175 15.7378 10.6896 16.1194 11.1141C16.5997 11.6485 16.2466 12.5011 15.5291 12.5393C14.9591 12.5697 14.5784 13.1394 14.7685 13.6777C15.0077 14.3552 14.3552 15.0077 13.6777 14.7685C13.1394 14.5784 12.5697 14.9591 12.5393 15.5291C12.5011 16.2466 11.6485 16.5997 11.1141 16.1194C10.6896 15.7378 10.0175 15.8715 9.77131 16.3865C9.46141 17.0348 8.53859 17.0348 8.22869 16.3865C7.98251 15.8715 7.31042 15.7378 6.88589 16.1194C6.35151 16.5997 5.49893 16.2466 5.4607 15.5291C5.43034 14.9591 4.86057 14.5784 4.32233 14.7685C3.64482 15.0077 2.99228 14.3552 3.23154 13.6777C3.42161 13.1394 3.04091 12.5697 2.47091 12.5393C1.75341 12.5011 1.40026 11.6485 1.88057 11.1141C2.26215 10.6896 2.12847 10.0175 1.61347 9.77131C0.96522 9.46141 0.96522 8.53859 1.61347 8.22869C2.12847 7.98251 2.26215 7.31042 1.88057 6.88589C1.40026 6.35151 1.75341 5.49893 2.47091 5.4607C3.04091 5.43034 3.42161 4.86057 3.23154 4.32233C2.99228 3.64482 3.64482 2.99228 4.32233 3.23154C4.86057 3.42161 5.43034 3.04091 5.4607 2.47091C5.49893 1.75341 6.35151 1.40026 6.88589 1.88057C7.31042 2.26215 7.98251 2.12847 8.22869 1.61347Z" fill="#FF6C00"/>
<path d="M7.87109 8.62109C7.60254 8.96777 7.25098 9.13867 6.81152 9.13867C6.37207 9.13867 6.02051 8.96777 5.75195 8.62109C5.4834 8.2793 5.35156 7.8252 5.35156 7.25879C5.35156 6.69238 5.4834 6.23828 5.75195 5.8916C6.02051 5.5498 6.37207 5.37891 6.81152 5.37891C7.25098 5.37891 7.60254 5.5498 7.87109 5.8916C8.13965 6.23828 8.27148 6.69238 8.27148 7.25879C8.27148 7.8252 8.13965 8.2793 7.87109 8.62109ZM6.0791 12L6.0498 11.9414L11.0107 5.50098H11.6504L11.6797 5.55957L6.71875 12H6.0791ZM6.20605 8.20117C6.35742 8.44043 6.55762 8.55762 6.81152 8.55762C7.06543 8.55762 7.26562 8.44043 7.41699 8.20117C7.56836 7.9668 7.6416 7.6543 7.6416 7.25879C7.6416 6.86328 7.56836 6.55078 7.41699 6.31152C7.26562 6.07715 7.06543 5.95996 6.81152 5.95996C6.55762 5.95996 6.35742 6.07715 6.20605 6.31152C6.05469 6.55078 5.98145 6.86328 5.98145 7.25879C5.98145 7.6543 6.05469 7.9668 6.20605 8.20117ZM12.041 11.6045C11.7725 11.9512 11.4209 12.1221 10.9814 12.1221C10.542 12.1221 10.1904 11.9512 9.92188 11.6045C9.65332 11.2627 9.52148 10.8086 9.52148 10.2373C9.52148 9.6709 9.65332 9.2168 9.92188 8.875C10.1904 8.5332 10.542 8.3623 10.9814 8.3623C11.4209 8.3623 11.7725 8.5332 12.041 8.875C12.3096 9.2168 12.4414 9.6709 12.4414 10.2373C12.4414 10.8086 12.3096 11.2627 12.041 11.6045ZM10.376 11.1846C10.5273 11.4238 10.7275 11.541 10.9814 11.541C11.2354 11.541 11.4355 11.4238 11.5869 11.1846C11.7383 10.9453 11.8115 10.6328 11.8115 10.2373C11.8115 9.84668 11.7383 9.53418 11.5869 9.29492C11.4355 9.05566 11.2354 8.93848 10.9814 8.93848C10.7275 8.93848 10.5273 9.05566 10.376 9.29492C10.2246 9.53418 10.1514 9.84668 10.1514 10.2373C10.1514 10.6328 10.2246 10.9453 10.376 11.1846Z" fill="#FEFEFE"/>
</svg>
