<svg width="13" height="10" viewBox="0 0 13 10" fill="none" xmlns="http://www.w3.org/2000/svg">
<path d="M0.986024 8.57674C0.752362 8.7239 0.682241 9.03262 0.829404 9.26628C0.976567 9.49994 1.28529 9.57006 1.51895 9.4229L0.986024 8.57674ZM12.8545 2.11057C12.9156 1.84129 12.7469 1.57341 12.4776 1.51225L8.0894 0.515526C7.82012 0.454363 7.55224 0.623077 7.49107 0.892361C7.42991 1.16164 7.59863 1.42952 7.86791 1.49069L11.7686 2.37666L10.8826 6.27731C10.8214 6.54659 10.9901 6.81447 11.2594 6.87564C11.5287 6.9368 11.7966 6.76809 11.8577 6.4988L12.8545 2.11057ZM1.51895 9.4229L12.6333 2.42291L12.1004 1.57674L0.986024 8.57674L1.51895 9.4229Z" fill="#353C41" fill-opacity="0.4"/>
</svg>
