<svg width="17" height="17" viewBox="0 0 17 17" fill="none" xmlns="http://www.w3.org/2000/svg">
<rect width="17" height="17" rx="8.5" fill="#AF1251"/>
<path d="M11.0384 5.23823C11.6772 6.06589 12 7.15424 12 8.49674C12 9.84576 11.6772 10.9276 11.0384 11.7552C10.3929 12.5829 9.54563 13 8.50336 13C7.45437 13 6.60711 12.5829 5.9683 11.7552C5.32277 10.9276 5 9.84576 5 8.49674C5 7.15424 5.32277 6.06589 5.9683 5.23823C6.60711 4.41057 7.45437 4 8.50336 4C9.54563 4 10.3929 4.41057 11.0384 5.23823ZM6.70125 5.89645C6.23727 6.5677 6.00865 7.43447 6.00865 8.49674C6.00865 9.56553 6.23727 10.4323 6.70125 11.097C7.1585 11.7683 7.75696 12.1007 8.50336 12.1007C9.24976 12.1007 9.84822 11.7683 10.3055 11.097C10.7627 10.4323 10.9914 9.56553 10.9914 8.49674C10.9914 7.43447 10.7627 6.5677 10.3055 5.89645C9.84822 5.2252 9.24976 4.89283 8.50336 4.89283C7.75696 4.89283 7.1585 5.2252 6.70125 5.89645Z" fill="#FEFEFE"/>
</svg>
