<svg width="19" height="17" viewBox="0 0 19 17" fill="none" xmlns="http://www.w3.org/2000/svg">
<path d="M7.8 12.3398H7.44328L7.42547 12.6961L7.26509 15.9036L3.45225 12.4374L3.34498 12.3398H3.2H2C1.10254 12.3398 0.375 11.6123 0.375 10.7148V2.71484C0.375 1.81738 1.10254 1.08984 2 1.08984H16.4C17.2975 1.08984 18.025 1.81738 18.025 2.71484V10.7148C18.025 11.6123 17.2975 12.3398 16.4 12.3398H7.8Z" stroke="#353C41" stroke-width="0.75"/>
<path d="M8.20703 4.31641V4.82812H5.32812V6.63672H7.625V7.14844H5.32812V9.00391H8.20703V9.51562H4.75391V4.31641H8.20703Z" fill="#353C41"/>
<path d="M13.0253 8.45312V4.31641H13.5878V9.59375H13.33L9.96281 5.46094V9.51562H9.40422V4.31641H9.65812L13.0253 8.45312Z" fill="#353C41"/>
</svg>
