<svg width="47" height="46" viewBox="0 0 47 46" fill="none" xmlns="http://www.w3.org/2000/svg">
<rect x="0.808594" width="46" height="46" rx="23" fill="#FCEAAF"/>
<g filter="url(#filter0_d_3368_6983)">
<path d="M15.3086 19C15.3086 18.1716 15.9802 17.5 16.8086 17.5H30.4086C31.237 17.5 31.9086 18.1716 31.9086 19V31C31.9086 31.8284 31.237 32.5 30.4086 32.5H16.8086C15.9802 32.5 15.3086 31.8284 15.3086 31V19Z" stroke="#FF6C00"/>
<rect width="4.21367" height="4.21367" rx="1" transform="matrix(0.6981 -0.716 0.6981 0.716 20.4102 25)" fill="#FF6C00"/>
<path d="M21.707 14C21.707 13.7239 21.9309 13.5 22.207 13.5H25.807C26.0832 13.5 26.307 13.7239 26.307 14V17.3H21.707V14Z" stroke="#FF6C00"/>
</g>
<defs>
<filter id="filter0_d_3368_6983" x="10.8086" y="13" width="25.6016" height="28" filterUnits="userSpaceOnUse" color-interpolation-filters="sRGB">
<feFlood flood-opacity="0" result="BackgroundImageFix"/>
<feColorMatrix in="SourceAlpha" type="matrix" values="0 0 0 0 0 0 0 0 0 0 0 0 0 0 0 0 0 0 127 0" result="hardAlpha"/>
<feOffset dy="4"/>
<feGaussianBlur stdDeviation="2"/>
<feComposite in2="hardAlpha" operator="out"/>
<feColorMatrix type="matrix" values="0 0 0 0 0 0 0 0 0 0 0 0 0 0 0 0 0 0 0.25 0"/>
<feBlend mode="normal" in2="BackgroundImageFix" result="effect1_dropShadow_3368_6983"/>
<feBlend mode="normal" in="SourceGraphic" in2="effect1_dropShadow_3368_6983" result="shape"/>
</filter>
</defs>
</svg>
