<svg width="13" height="11" viewBox="0 0 13 11" fill="none" xmlns="http://www.w3.org/2000/svg">
<path d="M0.625 8.8255C0.266281 9.0326 0.143374 9.4913 0.350481 9.85002C0.557588 10.2087 1.01628 10.3316 1.375 10.1245L0.625 8.8255ZM12.9395 3.19411C13.0467 2.79401 12.8093 2.38276 12.4092 2.27556L5.88917 0.528527C5.48907 0.421321 5.07782 0.658758 4.97061 1.05886C4.86341 1.45896 5.10084 1.87021 5.50094 1.97742L11.2965 3.53033L9.74358 9.32589C9.63638 9.72598 9.87381 10.1372 10.2739 10.2444C10.674 10.3517 11.0853 10.1142 11.1925 9.71411L12.9395 3.19411ZM1.375 10.1245L12.5901 3.64952L11.8401 2.35048L0.625 8.8255L1.375 10.1245Z" fill="#FF6C00"/>
</svg>
