<svg width="12" height="16" viewBox="0 0 12 16" fill="none" xmlns="http://www.w3.org/2000/svg">
<path d="M2.25408 4.125C2.04697 4.125 1.87908 4.29289 1.87908 4.5C1.87908 4.70711 2.04697 4.875 2.25408 4.875V4.125ZM2.25408 5.99167C2.04697 5.99167 1.87908 6.15956 1.87908 6.36667C1.87908 6.57377 2.04697 6.74167 2.25408 6.74167V5.99167ZM2.25408 7.85833C2.04697 7.85833 1.87908 8.02623 1.87908 8.23333C1.87908 8.44044 2.04697 8.60833 2.25408 8.60833V7.85833ZM0.970747 2.54167H10.3819V1.79167H0.970747V2.54167ZM10.4346 2.63333V14.5333H11.1846V2.63333H10.4346ZM10.3819 14.625H0.970747V15.375H10.3819V14.625ZM0.917969 14.5333V2.63333H0.167969V14.5333H0.917969ZM0.970747 14.625C0.967303 14.625 0.957813 14.6242 0.944695 14.6099C0.931078 14.5951 0.917969 14.569 0.917969 14.5333H0.167969C0.167969 14.9668 0.497338 15.375 0.970747 15.375V14.625ZM10.4346 14.5333C10.4346 14.569 10.4215 14.5951 10.4079 14.6099C10.3948 14.6242 10.3853 14.625 10.3819 14.625V15.375C10.8553 15.375 11.1846 14.9668 11.1846 14.5333H10.4346ZM10.3819 2.54167C10.3853 2.54167 10.3948 2.54244 10.4079 2.55675C10.4215 2.5716 10.4346 2.5977 10.4346 2.63333H11.1846C11.1846 2.19988 10.8553 1.79167 10.3819 1.79167V2.54167ZM0.970747 1.79167C0.497337 1.79167 0.167969 2.19988 0.167969 2.63333H0.917969C0.917969 2.5977 0.931078 2.5716 0.944695 2.55675C0.957813 2.54244 0.967303 2.54167 0.970747 2.54167V1.79167ZM2.25408 4.875H8.67075V4.125H2.25408V4.875ZM2.25408 6.74167H8.67075V5.99167H2.25408V6.74167ZM2.25408 8.60833H6.95964V7.85833H2.25408V8.60833ZM4.1263 2.16667V1.46667H3.3763V2.16667H4.1263ZM4.17908 1.375H7.6013V0.625H4.17908V1.375ZM7.65408 1.46667V2.4H8.40408V1.46667H7.65408ZM7.6013 1.375C7.60475 1.375 7.61424 1.37577 7.62735 1.39008C7.64097 1.40493 7.65408 1.43103 7.65408 1.46667H8.40408C8.40408 1.03321 8.07471 0.625 7.6013 0.625V1.375ZM4.1263 1.46667C4.1263 1.43103 4.13941 1.40493 4.15303 1.39008C4.16615 1.37577 4.17564 1.375 4.17908 1.375V0.625C3.70567 0.625 3.3763 1.03321 3.3763 1.46667H4.1263Z" fill="#353C41"/>
</svg>
