<svg width="15" height="14" viewBox="0 0 15 14" fill="none" xmlns="http://www.w3.org/2000/svg">
<rect width="13.2222" height="13.2222" rx="6.61111" fill="#6F757C"/>
<rect x="10.8906" y="10.1113" width="3.88889" height="3.88889" rx="1.94444" fill="#6F757C"/>
<path d="M8.58718 4.0744C9.08403 4.71813 9.33507 5.56462 9.33507 6.60879C9.33507 7.65803 9.08403 8.49945 8.58718 9.14319C8.0851 9.78693 7.42611 10.1113 6.61546 10.1113C5.79958 10.1113 5.1406 9.78693 4.64375 9.14319C4.14167 8.49945 3.89062 7.65803 3.89062 6.60879C3.89062 5.56462 4.14167 4.71813 4.64375 4.0744C5.1406 3.43066 5.79958 3.11133 6.61546 3.11133C7.42611 3.11133 8.0851 3.43066 8.58718 4.0744ZM5.21382 4.58635C4.85295 5.10843 4.67513 5.78258 4.67513 6.60879C4.67513 7.44008 4.85295 8.11422 5.21382 8.63124C5.56946 9.15333 6.03493 9.41184 6.61546 9.41184C7.19599 9.41184 7.66146 9.15333 8.01711 8.63124C8.37275 8.11422 8.55057 7.44008 8.55057 6.60879C8.55057 5.78258 8.37275 5.10843 8.01711 4.58635C7.66146 4.06426 7.19599 3.80575 6.61546 3.80575C6.03493 3.80575 5.56946 4.06426 5.21382 4.58635Z" fill="#FEFEFE"/>
</svg>
