<svg width="10" height="9" viewBox="0 0 10 9" fill="none" xmlns="http://www.w3.org/2000/svg">
<path d="M4.90489 0.292705C4.93483 0.200574 5.06517 0.200574 5.09511 0.292705L6.10012 3.38582C6.11351 3.42702 6.1519 3.45492 6.19522 3.45492H9.44751C9.54439 3.45492 9.58466 3.57888 9.50629 3.63582L6.87513 5.54746C6.84009 5.57293 6.82542 5.61807 6.83881 5.65927L7.84382 8.75238C7.87376 8.84451 7.76831 8.92112 7.68994 8.86418L5.05878 6.95254C5.02373 6.92707 4.97627 6.92707 4.94122 6.95254L2.31006 8.86418C2.23169 8.92112 2.12624 8.84451 2.15618 8.75238L3.16119 5.65927C3.17458 5.61807 3.15991 5.57293 3.12487 5.54746L0.493707 3.63582C0.415336 3.57888 0.455614 3.45492 0.552486 3.45492H3.80478C3.8481 3.45492 3.88649 3.42702 3.89988 3.38582L4.90489 0.292705Z" fill="#353C41"/>
</svg>
