<svg width="16" height="16" viewBox="0 0 16 16" fill="none" xmlns="http://www.w3.org/2000/svg">
<path d="M5.92025 4.86754C5.92025 4.39382 6.43307 4.09774 6.84333 4.3346L12.0537 7.34282C12.464 7.57969 12.464 8.17184 12.0537 8.4087L6.84333 11.4169C6.43307 11.6538 5.92025 11.3577 5.92025 10.884V4.86754Z" fill="#AF1251"/>
<path d="M16 8C16 12.4183 12.4183 16 8 16C3.58172 16 0 12.4183 0 8C0 3.58172 3.58172 0 8 0C12.4183 0 16 3.58172 16 8ZM0.693582 8C0.693582 12.0352 3.96478 15.3064 8 15.3064C12.0352 15.3064 15.3064 12.0352 15.3064 8C15.3064 3.96478 12.0352 0.693582 8 0.693582C3.96478 0.693582 0.693582 3.96478 0.693582 8Z" fill="#AF1251"/>
</svg>
