<svg width="17" height="19" viewBox="0 0 17 19" fill="none" xmlns="http://www.w3.org/2000/svg">
<path d="M6.16056 11.6018C5.38698 9.57148 3.84902 7.91526 1.87867 6.99435C3.84713 6.29541 5.4191 4.75807 6.15931 2.79964C6.79492 4.74931 8.29594 6.29535 10.2054 6.99694C8.30084 7.92779 6.83978 9.5875 6.16056 11.6018Z" stroke="#FEFEFE"/>
<path d="M12.6207 17.433C12.0319 15.9052 10.8602 14.6663 9.36499 13.994C10.8603 13.4819 12.058 12.325 12.62 10.8443C13.1023 12.3183 14.246 13.4818 15.6963 13.9959C14.2509 14.6754 13.1374 15.9171 12.6207 17.433Z" stroke="#FEFEFE" stroke-width="0.7"/>
<path d="M12.1966 3.9488C11.9186 3.33306 11.4434 2.82465 10.8466 2.50601C11.4419 2.2517 11.9241 1.78341 12.1955 1.19486C12.437 1.78163 12.8976 2.25205 13.4748 2.50719C12.8985 2.82834 12.4468 3.33731 12.1966 3.9488Z" stroke="#FEFEFE" stroke-width="0.5"/>
<path d="M2.19658 15.9488C1.91862 15.3331 1.44338 14.8246 0.846616 14.506C1.44191 14.2517 1.92411 13.7834 2.19547 13.1949C2.43697 13.7816 2.89759 14.2521 3.47475 14.5072C2.89853 14.8283 2.44677 15.3373 2.19658 15.9488Z" stroke="#FEFEFE" stroke-width="0.5"/>
</svg>
