<svg width="13" height="11" viewBox="0 0 13 11" fill="none" xmlns="http://www.w3.org/2000/svg">
<path d="M0.625 8.82509C0.266281 9.0322 0.143374 9.49089 0.350481 9.84961C0.557588 10.2083 1.01628 10.3312 1.375 10.1241L0.625 8.82509ZM12.9395 3.19371C13.0467 2.79361 12.8093 2.38235 12.4092 2.27515L5.88917 0.52812C5.48907 0.420913 5.07782 0.65835 4.97061 1.05845C4.86341 1.45855 5.10084 1.8698 5.50094 1.97701L11.2965 3.52992L9.74358 9.32548C9.63638 9.72558 9.87381 10.1368 10.2739 10.244C10.674 10.3512 11.0853 10.1138 11.1925 9.71371L12.9395 3.19371ZM1.375 10.1241L12.5901 3.64911L11.8401 2.35007L0.625 8.82509L1.375 10.1241Z" fill="#353C41"/>
</svg>
