<svg width="27" height="35" viewBox="0 0 27 35" fill="none" xmlns="http://www.w3.org/2000/svg">
<path d="M12.7349 11.9638H21.2385M5.73828 11.2994L7.56817 13.4034L10.5821 9.74902M5.73828 18.8296L7.56817 21.2658L10.5821 17.5007M12.7349 19.2725H21.2385M12.7349 27.3564H21.2385M10.5821 27.3631V27.7926C10.5821 28.8972 9.68668 29.7926 8.58211 29.7926H7.73828C6.63371 29.7926 5.73828 28.8972 5.73828 27.7926V27.3631C5.73828 26.2585 6.63371 25.3631 7.73828 25.3631H8.58211C9.68668 25.3631 10.5821 26.2585 10.5821 27.3631Z" stroke="#FF6C00" stroke-width="1.5"/>
<path d="M7.67372 4.7651H4C2.34315 4.7651 1 6.10825 1 7.7651V31C1 32.6569 2.34315 34 4 34H22.5421C24.1989 34 25.5421 32.6569 25.5421 31V7.7651C25.5421 6.10824 24.1989 4.7651 22.5421 4.7651H18.4378M7.67372 4.7651V4.7651C7.67372 6.1106 8.76447 7.20134 10.11 7.20134H16.0016C17.3471 7.20134 18.4378 6.1106 18.4378 4.7651V4.7651M7.67372 4.7651V4.7651C7.67372 4.03119 8.26868 3.43624 9.00258 3.43624H10.6292C10.7209 3.43624 10.7953 3.36187 10.7953 3.27013V3.27013C10.7953 2.01637 11.8117 1 13.0654 1H13.2614C14.5151 1 15.5315 2.01637 15.5315 3.27013V3.27013C15.5315 3.36187 15.6059 3.43624 15.6976 3.43624H17.1089C17.8428 3.43624 18.4378 4.03119 18.4378 4.7651V4.7651" stroke="#353C41" stroke-width="1.5"/>
</svg>
