<svg width="31" height="30" viewBox="0 0 31 30" fill="none" xmlns="http://www.w3.org/2000/svg">
<path fill-rule="evenodd" clip-rule="evenodd" d="M15.1023 29C17.187 29 19.1653 28.5512 20.9451 27.7459V24.6001H21.9451V27.2446C23.0244 26.6488 24.0166 25.9165 24.898 25.0712L22.9378 21.1774C21.8337 18.984 19.5876 17.6001 17.132 17.6001H13.5161C10.9922 17.6001 8.69647 19.0611 7.62767 21.3475L5.71214 25.4453C6.57331 26.209 7.52957 26.8692 8.56122 27.4064V24.6001H9.56122V27.8782C11.2618 28.6002 13.1346 29 15.1023 29ZM23.831 20.7277L25.6344 24.3101C27.8556 21.8351 29.2045 18.5727 29.2045 15C29.2045 7.27441 22.8971 1 15.1023 1C7.30738 1 1 7.27441 1 15C1 18.7717 2.50333 22.1975 4.94914 24.7162L6.72176 20.9241C7.95498 18.2859 10.6039 16.6001 13.5161 16.6001H17.132C19.9654 16.6001 22.557 18.1969 23.831 20.7277ZM30.2045 15C30.2045 18.9708 28.6511 22.5812 26.1149 25.2645L26.1203 25.2752L26.0905 25.2902C23.3368 28.19 19.4323 30 15.1023 30C6.76151 30 0 23.2843 0 15C0 6.71573 6.76151 0 15.1023 0C23.443 0 30.2045 6.71573 30.2045 15ZM10.5684 9.26692C10.5684 6.72961 12.6402 4.66692 15.2031 4.66692C17.766 4.66692 19.8379 6.72961 19.8379 9.26692C19.8379 11.8042 17.766 13.8669 15.2031 13.8669C12.6402 13.8669 10.5684 11.8042 10.5684 9.26692ZM15.2031 3.66692C12.0943 3.66692 9.56836 6.17093 9.56836 9.26692C9.56836 12.3629 12.0943 14.8669 15.2031 14.8669C18.3119 14.8669 20.8379 12.3629 20.8379 9.26692C20.8379 6.17093 18.3119 3.66692 15.2031 3.66692Z" fill="black"/>
</svg>
